<?xml version="1.0" standalone="no"?>
<!DOCTYPE svg PUBLIC "-//W3C//DTD SVG 20010904//EN"
 "http://www.w3.org/TR/2001/REC-SVG-20010904/DTD/svg10.dtd">
<svg version="1.0" xmlns="http://www.w3.org/2000/svg"
 width="512.000000pt" height="512.000000pt" viewBox="0 0 512.000000 512.000000"
 preserveAspectRatio="xMidYMid meet">
<metadata>
Created by potrace 1.14, written by Peter Selinger 2001-2017
</metadata>
<g transform="translate(0.000000,512.000000) scale(0.100000,-0.100000)"
fill="#000000" stroke="none">
<path d="M1745 5095 c-23 -22 -25 -32 -26 -122 -2 -116 -2 -118 -23 -208 -29
-122 -103 -248 -200 -339 -78 -73 -137 -106 -346 -196 -41 -17 -84 -36 -95
-40 -11 -5 -67 -30 -125 -55 -208 -91 -316 -162 -445 -292 -173 -174 -303
-428 -340 -663 -4 -25 -9 -54 -12 -65 -5 -26 -5 -264 0 -290 3 -11 8 -40 12
-65 11 -68 39 -167 70 -244 25 -62 28 -82 28 -191 l1 -122 -36 -44 c-42 -52
-72 -108 -88 -168 -15 -56 -20 -228 -7 -264 16 -48 75 -63 118 -28 21 17 23
27 24 123 2 118 21 187 63 233 15 17 119 110 232 206 113 96 279 237 368 314
90 77 167 141 172 143 4 1 7 -48 6 -111 l-1 -114 -143 -172 c-186 -224 -186
-224 -179 -314 4 -40 9 -84 12 -98 4 -20 40 -236 60 -359 21 -128 29 -169 41
-192 14 -28 65 -70 98 -82 31 -11 189 -8 221 4 48 18 72 47 157 190 45 74 90
145 100 156 25 28 84 43 125 32 36 -9 82 -59 84 -91 4 -54 0 -67 -57 -192 -7
-16 -51 -119 -98 -228 -95 -222 -139 -298 -229 -386 -77 -75 -134 -114 -259
-175 -53 -27 -99 -53 -101 -59 -3 -7 -75 -106 -160 -221 -85 -115 -153 -216
-152 -225 2 -9 4 -21 4 -28 2 -21 44 -53 71 -53 14 0 35 8 46 18 10 10 84 107
164 214 l145 196 76 36 c42 20 79 36 81 36 3 0 4 -12 2 -28 -1 -15 -5 -74 -8
-132 -3 -58 -8 -142 -11 -188 -5 -78 -4 -84 19 -107 14 -14 37 -25 51 -25 29
0 74 40 76 67 1 10 2 36 4 58 8 137 16 262 20 345 8 129 7 128 65 190 76 82
145 192 195 310 10 25 26 63 36 85 9 22 29 69 44 105 15 36 35 83 45 105 74
165 82 189 85 250 1 17 -5 53 -13 80 -42 149 -192 230 -344 186 -51 -14 -120
-67 -148 -114 l-18 -29 -15 49 c-34 104 -37 167 -37 740 0 632 1 625 -59 638
-59 13 -91 -21 -92 -98 -2 -61 -2 -62 -115 -157 -16 -14 -76 -65 -134 -114
-158 -135 -304 -260 -310 -266 -13 -13 -126 -107 -136 -113 -7 -4 -11 16 -11
66 1 59 -5 87 -30 147 -142 342 -105 721 101 1030 87 131 240 273 371 345 27
15 164 76 305 136 140 61 287 129 325 151 96 57 228 192 284 291 41 72 88 185
97 232 2 11 8 42 13 68 5 26 9 97 10 157 2 105 1 111 -23 135 -32 32 -70 32
-101 0z m-648 -3002 c0 -263 19 -384 83 -529 l27 -61 -24 -41 -25 -42 -69 0
c-77 0 -69 -11 -88 110 -6 36 -13 81 -16 100 -3 19 -7 46 -10 60 -3 14 -7 39
-9 55 -8 50 -14 86 -31 184 -9 52 -14 104 -11 115 4 12 24 41 46 66 23 25 57
66 78 92 20 26 40 47 43 48 3 0 6 -71 6 -157z"/>
<path d="M2532 5113 c-28 -11 -40 -59 -40 -163 0 -101 0 -104 29 -133 24 -23
35 -28 57 -22 56 14 69 47 66 184 -1 89 -3 96 -28 118 -26 22 -55 28 -84 16z"/>
<path d="M3273 5094 l-26 -26 6 -136 c6 -160 23 -233 82 -357 94 -201 241
-339 460 -434 39 -16 154 -66 257 -111 191 -82 255 -115 341 -177 77 -55 138
-42 151 32 5 25 -1 35 -38 70 -66 61 -170 116 -466 245 -149 65 -296 134 -325
154 -112 74 -207 189 -258 312 -46 112 -54 157 -56 307 -1 90 -3 100 -26 122
-31 32 -69 32 -102 -1z"/>
<path d="M2528 4433 c-18 -12 -29 -28 -32 -52 -10 -63 -4 -195 10 -223 15 -30
62 -45 92 -29 41 22 46 38 45 157 0 101 -2 118 -20 135 -26 27 -63 31 -95 12z"/>
<path d="M2543 3769 c-43 -16 -52 -45 -50 -167 2 -106 4 -115 26 -133 46 -37
119 -10 122 45 6 102 2 195 -8 217 -14 31 -59 50 -90 38z"/>
<path d="M4663 3720 c-49 -20 -51 -76 -5 -143 64 -91 138 -265 157 -362 19
-101 23 -142 23 -250 0 -145 -23 -268 -75 -398 -31 -76 -37 -104 -37 -164 1
-82 3 -81 -77 -12 -30 26 -155 133 -279 238 -124 106 -253 217 -286 247 l-61
54 0 57 c0 49 -4 60 -27 80 -15 13 -34 23 -42 23 -12 0 -68 -24 -76 -33 -1 -1
-5 -283 -8 -627 -6 -556 -8 -632 -24 -685 -22 -75 -29 -82 -49 -51 -97 148
-310 160 -437 24 -51 -55 -79 -174 -57 -243 10 -30 180 -433 232 -550 36 -80
102 -178 164 -243 56 -59 57 -62 66 -212 23 -383 25 -403 48 -427 28 -31 71
-30 103 2 25 25 26 29 20 118 -4 51 -9 133 -12 182 -3 50 -7 105 -9 123 -2 17
0 32 4 32 3 0 40 -16 83 -37 l76 -36 149 -203 c92 -126 158 -207 174 -214 41
-17 79 -3 96 37 17 43 17 44 -131 243 -59 80 -118 158 -129 174 -54 73 -76 91
-156 129 -168 78 -294 188 -374 327 -56 97 -258 585 -259 624 -1 73 74 133
146 116 21 -4 46 -16 56 -25 10 -9 57 -81 104 -160 115 -191 137 -208 278
-207 91 1 112 6 156 39 39 29 58 65 67 123 3 25 8 53 11 63 11 37 -7 78 -40
92 -61 26 -98 -2 -110 -85 -13 -83 -10 -80 -86 -80 -67 0 -68 0 -89 36 -27 45
-27 45 8 129 30 74 59 187 67 265 3 25 6 125 6 223 1 97 4 177 7 176 6 0 150
-172 164 -196 5 -8 1 -60 -8 -120 -16 -102 -16 -107 2 -131 26 -35 54 -43 91
-25 30 15 39 29 47 75 31 178 32 222 5 266 -19 31 -191 245 -214 267 -6 6 -29
32 -51 60 l-40 49 -1 113 c-1 62 1 113 3 113 4 0 170 -137 199 -165 6 -5 33
-29 60 -52 27 -23 60 -51 74 -63 14 -12 47 -40 74 -63 251 -213 355 -305 377
-336 52 -71 53 -81 54 -586 l1 -470 58 -115 c74 -144 95 -162 155 -133 53 26
51 63 -11 182 l-53 103 -1 462 c-1 540 -2 543 -100 672 l-37 49 0 125 c0 104
4 132 21 170 55 121 92 307 93 467 0 199 -40 372 -126 548 -91 184 -138 232
-202 205z"/>
<path d="M2519 3081 c-22 -18 -24 -27 -26 -134 -2 -101 1 -119 17 -140 11 -14
31 -27 44 -29 31 -6 86 25 87 49 5 100 3 211 -3 225 -23 50 -77 63 -119 29z"/>
<path d="M2537 2423 c-33 -9 -47 -55 -46 -158 0 -101 10 -139 38 -150 40 -16
61 -14 87 8 27 23 27 25 27 142 0 116 -1 119 -27 142 -26 22 -42 26 -79 16z"/>
<path d="M1587 2224 c-1 -2 -28 -4 -60 -5 -58 -2 -104 -19 -119 -42 -13 -21
-9 -64 10 -87 17 -21 26 -22 162 -24 138 -2 146 -1 168 21 12 13 22 34 22 51
0 44 -34 68 -113 79 -37 5 -68 8 -70 7z"/>
<path d="M3457 2215 c-53 -8 -73 -16 -88 -34 -26 -32 -24 -75 4 -98 21 -16 42
-18 167 -17 136 1 145 3 162 24 25 30 23 75 -4 100 -12 11 -27 20 -32 21 -6 0
-40 3 -76 7 -36 4 -96 3 -133 -3z"/>
<path d="M1935 2070 c-61 -24 -63 -86 -6 -145 93 -96 142 -217 143 -350 0 -76
-13 -134 -53 -231 -16 -41 -5 -80 29 -98 62 -32 101 1 141 121 28 84 34 124
34 218 -1 148 -54 289 -153 409 -37 45 -94 89 -112 85 -1 0 -12 -4 -23 -9z"/>
<path d="M3140 2072 c-81 -36 -187 -197 -225 -342 -35 -132 -17 -317 42 -431
31 -60 67 -78 111 -55 16 8 32 23 36 31 9 23 7 59 -2 71 -13 14 -41 94 -48
139 -8 47 -8 140 0 175 3 14 7 36 10 50 12 52 69 153 117 203 45 48 54 69 49
107 -4 34 -59 65 -90 52z"/>
<path d="M2519 1730 c-29 -28 -29 -29 -26 -145 2 -109 4 -118 26 -136 27 -22
49 -24 86 -7 32 14 38 38 39 157 1 73 -3 100 -16 122 -10 16 -23 29 -30 30 -7
0 -22 2 -32 4 -11 2 -31 -8 -47 -25z"/>
<path d="M155 1500 c-47 -18 -49 -29 -50 -263 l-1 -222 -53 -98 c-44 -81 -52
-104 -47 -130 8 -43 49 -67 92 -56 27 8 39 23 75 91 89 168 83 139 84 383 1
218 -1 244 -20 277 -12 20 -52 29 -80 18z"/>
<path d="M2519 1061 c-23 -18 -24 -25 -24 -139 0 -134 11 -162 66 -162 69 0
85 31 83 155 -3 124 -2 119 -24 143 -26 27 -70 28 -101 3z"/>
<path d="M2532 403 c-30 -12 -43 -63 -41 -161 2 -53 4 -104 6 -113 7 -24 54
-48 86 -42 48 9 60 40 60 164 1 110 1 112 -26 135 -27 23 -56 29 -85 17z"/>
</g>
</svg>
